# xmcd
#
# Track frame offsets:
# 150
# 10428
# 28232
# 40076
# 52811
# 68693
# 85123
# 102997
# 113080
# 123547
#
# Disc length: 1793 seconds
#
#
# Revision: 0
# Processed by: cddbd v1.5.2PL0 Copyright (c) Steve Scherf et al.
# Submitted via: FreeRIP 2.945 
#
DISCID=7b06ff0a
DTITLE=Quinteto Violado - Pilogamia do Forró
DYEAR=1900
DGENRE=Alternative
TTITLE0=Numa Sala De Rebôco
TTITLE1=Um Sonho
TTITLE2=Catirina
TTITLE3=Uai! Uai!
TTITLE4=Do Pilar
TTITLE5=Kalú
TTITLE6=Martelo Agalopado
TTITLE7=Gíria do Nordeste
TTITLE8=Do Velho Para O Novo
TTITLE9=Paluchiado Da Cachaça
EXTD=
EXTT0=
EXTT1=
EXTT2=
EXTT3=
EXTT4=
EXTT5=
EXTT6=
EXTT7=
EXTT8=
EXTT9=
PLAYORDER=
